<svg width="320" height="64" viewBox="0 0 320 64" fill="none" xmlns="http://www.w3.org/2000/svg">
<path d="M43.6072 12.0073L28.9885 12.126C27.7773 12.0725 26.8111 11.1218 26.738 9.91171L26.6898 3.97609L27.6125 3.96859L27.66 9.82288L27.6602 9.84782L27.6629 9.87261C27.6996 10.2118 27.8411 10.5321 28.0957 10.7826L28.4193 10.4536L28.0957 10.7826C28.3493 11.0321 28.6864 11.1822 29.0621 11.1791L43.5996 11.0611L44.0995 11.057L44.0955 10.557L44.0409 3.8352L44.9871 3.82752L45.0561 12.3269C45.0433 13.64 45.0122 15.5752 44.9527 16.8301L44.9526 16.8341C44.9045 18.0507 43.9263 19.0277 42.7282 19.0965C40.3681 19.2091 38.0076 19.275 35.6703 19.294C33.3109 19.3132 31.4419 19.2817 29.079 19.2073C27.88 19.158 26.886 18.197 26.8182 16.9813L26.815 16.9217C26.7977 16.5992 26.7812 16.2906 26.7706 15.9813L27.7045 15.9738C27.7071 16.0459 27.7095 16.1187 27.7119 16.1924L27.7123 16.2036C27.7199 16.4366 27.7279 16.6788 27.7417 16.9276L27.7424 16.9406L27.7439 16.9536C27.7806 17.2927 27.9221 17.6131 28.1766 17.8635C28.4271 18.11 28.7589 18.2594 29.129 18.2601C31.4546 18.3585 33.3369 18.3902 35.6628 18.3713C37.9869 18.3524 40.3361 18.2865 42.6628 18.1502C43.0329 18.1435 43.3623 17.9887 43.6087 17.7382C43.8592 17.4837 43.9954 17.1611 44.0266 16.8214L44.0279 16.8078L44.0284 16.7943C44.0672 15.755 44.0989 13.8731 44.1113 12.5118L44.1159 12.0031L43.6072 12.0073ZM67.636 16.94L67.6376 16.9243L67.6382 16.9085L67.641 16.8377C67.6528 16.5413 67.6644 16.2474 67.6703 15.9541L68.6001 15.9465C68.5876 16.2748 68.5751 16.6093 68.5626 16.9436L68.5625 16.9468C68.5625 16.947 68.5625 16.9472 68.5625 16.9473C68.5139 18.1486 67.5529 19.1377 66.3441 19.1859L66.3441 19.1858L66.3353 19.1863C63.9778 19.3222 61.6184 19.3882 59.2802 19.4071C56.9184 19.4263 54.5584 19.3987 52.2227 19.3009L52.2227 19.3009L52.2136 19.3006C51.0041 19.2721 50.027 18.2984 49.9592 17.0979L49.9592 17.0979L49.9589 17.094C49.7188 13.3647 49.7116 9.63093 49.8681 5.89223L49.8682 5.89104C49.9164 4.67082 50.875 3.69654 52.0942 3.62855L52.0954 3.62848C54.4292 3.49278 56.7885 3.42685 59.1503 3.40768C61.4885 3.38869 63.8486 3.4163 66.208 3.5139L66.209 3.51394C67.4292 3.56212 68.4035 4.52071 68.4715 5.73999C68.4896 6.06521 68.5078 6.40073 68.5261 6.73993L67.596 6.74749C67.5845 6.42243 67.5662 6.10695 67.5482 5.79755L67.5479 5.79253L67.5472 5.78012L67.5458 5.76776C67.5091 5.4286 67.3676 5.10824 67.1131 4.85779C66.8586 4.60735 66.5359 4.47107 66.1962 4.43988L66.1815 4.43852L66.1666 4.43804C63.8415 4.363 61.4887 4.31148 59.1578 4.3304C56.8269 4.34933 54.4518 4.43924 52.1281 4.55203L52.1106 4.55289L52.0931 4.55497C51.7913 4.59098 51.4452 4.72633 51.1886 4.9871C50.9422 5.23752 50.7928 5.5693 50.792 5.93933C50.6341 9.60846 50.6645 13.3459 50.8821 17.0352C50.8889 17.3759 51.0388 17.7295 51.2941 17.9807C51.5494 18.2319 51.9054 18.376 52.2463 18.3772C54.5752 18.4757 56.9485 18.5033 59.2727 18.4844C61.5968 18.4655 63.946 18.3996 66.2727 18.2634C66.6428 18.2566 66.9722 18.1018 67.2186 17.8514C67.4752 17.5906 67.6049 17.2423 67.636 16.94ZM74.1624 4.51341L73.6624 4.51747L73.6665 5.01745L73.7799 18.9846L72.8572 18.9921L72.7322 3.60223L91.0061 3.45385L91.1311 18.8437L90.2083 18.8512L90.0949 4.88405L90.0909 4.38407L89.5909 4.38813L74.1624 4.51341ZM131.659 3.12375L133.072 3.11228L124.754 10.5107L124.326 10.891L124.76 11.2637L133.194 18.5021L131.784 18.5136L123.945 11.7831L123.613 11.4984L123.287 11.7889L115.581 18.6452L114.172 18.6566L122.487 11.2822L122.915 10.9024L122.481 10.5291L114.044 3.26678L115.456 3.25532L123.272 9.98554L123.603 10.2707L123.93 9.98068L131.659 3.12375ZM97.0153 17.3731L97.0193 17.8731L97.5193 17.869L110.525 17.7634L110.533 18.6862L96.1041 18.8033L95.9791 3.41347L110.408 3.29631L110.415 4.21904L97.4093 4.32464L96.9093 4.3287L96.9134 4.82869L96.9566 10.1513L96.9607 10.6513L97.4607 10.6472L110.466 10.5416L110.474 11.4643L97.4682 11.5699L96.9682 11.574L96.9722 12.074L97.0153 17.3731Z" fill="url(#paint0_linear_31_4256)" stroke="url(#paint1_linear_31_4256)"/>
<line x1="158.112" y1="9.47855" x2="187.84" y2="9.23716" stroke="#99CAE5" stroke-width="2"/>
<path d="M293.491 3.88901C293.413 2.41235 292.293 1.249 290.893 1.19001C288.649 1.09099 286.406 1.0623 284.185 1.08034C281.942 1.09855 279.7 1.16366 277.48 1.29893C276.081 1.38063 274.981 2.56202 274.926 4.03975C274.757 7.79298 274.787 11.5446 275.017 15.2946C275.096 16.7478 276.216 17.9346 277.615 17.9701C279.837 18.0693 282.08 18.098 284.323 18.0798C286.544 18.0617 288.786 17.9966 291.028 17.8612C292.427 17.8029 293.528 16.5981 293.583 15.1438C293.73 11.3908 293.699 7.63916 293.491 3.88901ZM291.761 15.0648C291.74 15.276 291.653 15.5112 291.499 15.6766C291.345 15.842 291.146 15.9374 290.924 15.9392C288.726 16.0743 286.506 16.1392 284.308 16.1571C282.109 16.1749 279.866 16.1463 277.666 16.0469C277.466 16.0485 277.244 15.9565 277.087 15.7936C276.93 15.6308 276.839 15.397 276.838 15.186C276.63 11.5062 276.6 7.77801 276.748 4.11876C276.746 3.88428 276.833 3.67253 276.987 3.50714C277.141 3.34174 277.362 3.24615 277.562 3.22108C279.76 3.10944 282.002 3.02088 284.201 3.00303C286.399 2.98518 288.621 3.03749 290.82 3.11343C291.042 3.13507 291.243 3.22724 291.399 3.39011C291.556 3.55298 291.647 3.76329 291.671 3.99758C291.878 7.65395 291.909 11.3821 291.761 15.0648ZM230.565 1.82056L214.865 1.94804C213.466 2.02975 212.365 3.21114 212.311 4.68887L212.406 16.4361L211.274 16.4453L211.289 18.3914L231.831 18.2246L231.815 16.2785L230.683 16.2877L230.565 1.82056ZM214.227 16.4213L214.133 4.76787C214.153 4.53322 214.24 4.32147 214.394 4.15608C214.548 3.99068 214.747 3.89527 214.969 3.87002L228.738 3.75822L228.84 16.3026L214.227 16.4213ZM249.337 3.59096L249.321 1.66826L234.709 1.78691L234.842 18.1767L249.455 18.0581L249.439 16.1354L236.648 16.2392L236.605 10.9401L249.396 10.8362L249.38 8.91354L236.589 9.0174L236.546 3.69482L249.337 3.59096ZM252.897 4.35932C252.952 2.88158 254.053 1.70019 255.451 1.61849L271.151 1.491L271.285 17.8808L269.441 17.8958L269.324 3.42867L255.555 3.54046C255.334 3.56571 255.134 3.66113 254.98 3.82652C254.826 3.99192 254.717 4.20385 254.719 4.43832L254.807 15.318C254.752 16.7723 253.652 17.9771 252.253 18.0353L251.875 18.0384L251.86 16.1157L252.149 16.1134C252.371 16.1116 252.57 16.0162 252.724 15.8508C252.878 15.6854 252.965 15.4736 252.985 15.239L252.897 4.35932Z" fill="url(#paint2_linear_31_4256)"/>
<path d="M293.491 3.88901C293.413 2.41235 292.293 1.249 290.893 1.19001C288.649 1.09099 286.406 1.0623 284.185 1.08034C281.942 1.09855 279.7 1.16366 277.48 1.29893C276.081 1.38063 274.981 2.56202 274.926 4.03975C274.757 7.79298 274.787 11.5446 275.017 15.2946C275.096 16.7478 276.216 17.9346 277.615 17.9701C279.837 18.0693 282.08 18.098 284.323 18.0798C286.544 18.0617 288.786 17.9966 291.028 17.8612C292.427 17.8029 293.528 16.5981 293.583 15.1438C293.73 11.3908 293.699 7.63916 293.491 3.88901ZM291.761 15.0648C291.74 15.276 291.653 15.5112 291.499 15.6766C291.345 15.842 291.146 15.9374 290.924 15.9392C288.726 16.0743 286.506 16.1392 284.308 16.1571C282.109 16.1749 279.866 16.1463 277.666 16.0469C277.466 16.0485 277.244 15.9565 277.087 15.7936C276.93 15.6308 276.839 15.397 276.838 15.186C276.63 11.5062 276.6 7.77801 276.748 4.11876C276.746 3.88428 276.833 3.67253 276.987 3.50714C277.141 3.34174 277.362 3.24615 277.562 3.22108C279.76 3.10944 282.002 3.02088 284.201 3.00303C286.399 2.98518 288.621 3.03749 290.82 3.11343C291.042 3.13507 291.243 3.22724 291.399 3.39011C291.556 3.55298 291.647 3.76329 291.671 3.99758C291.878 7.65395 291.909 11.3821 291.761 15.0648ZM230.565 1.82056L214.865 1.94804C213.466 2.02975 212.365 3.21114 212.311 4.68887L212.406 16.4361L211.274 16.4453L211.289 18.3914L231.831 18.2246L231.815 16.2785L230.683 16.2877L230.565 1.82056ZM214.227 16.4213L214.133 4.76787C214.153 4.53322 214.24 4.32147 214.394 4.15608C214.548 3.99068 214.747 3.89527 214.969 3.87002L228.738 3.75822L228.84 16.3026L214.227 16.4213ZM249.337 3.59096L249.321 1.66826L234.709 1.78691L234.842 18.1767L249.455 18.0581L249.439 16.1354L236.648 16.2392L236.605 10.9401L249.396 10.8362L249.38 8.91354L236.589 9.0174L236.546 3.69482L249.337 3.59096ZM252.897 4.35932C252.952 2.88158 254.053 1.70019 255.451 1.61849L271.151 1.491L271.285 17.8808L269.441 17.8958L269.324 3.42867L255.555 3.54046C255.334 3.56571 255.134 3.66113 254.98 3.82652C254.826 3.99192 254.717 4.20385 254.719 4.43832L254.807 15.318C254.752 16.7723 253.652 17.9771 252.253 18.0353L251.875 18.0384L251.86 16.1157L252.149 16.1134C252.371 16.1116 252.57 16.0162 252.724 15.8508C252.878 15.6854 252.965 15.4736 252.985 15.239L252.897 4.35932Z" stroke="url(#paint3_linear_31_4256)"/>
<path d="M36.9048 60.2948C36.8837 60.4946 36.7946 60.7172 36.6368 60.8738C36.479 61.0304 36.2752 61.1208 36.0479 61.1227C33.7989 61.2519 31.5267 61.3147 29.2769 61.3329C27.027 61.3512 24.7313 61.3255 22.4806 61.2328C22.2761 61.2345 22.0481 61.1476 21.8877 60.9936C21.7274 60.8396 21.6347 60.6184 21.6331 60.4188C21.423 56.9371 21.3943 53.4096 21.548 49.9472C21.5462 49.7253 21.6355 49.5249 21.7934 49.3683C21.9512 49.2117 22.1777 49.1211 22.3821 49.0973C24.6312 48.9903 26.926 48.9051 29.1758 48.8868C31.4257 48.8685 33.6988 48.9166 35.9494 48.9871C36.1768 49.0075 36.382 49.0945 36.5424 49.2485C36.7027 49.4026 36.7953 49.6015 36.8198 49.8232C36.8461 50.2667 36.8724 50.7102 36.8762 51.1761L38.7625 51.1608C38.7358 50.6729 38.7091 50.185 38.6826 49.7193C38.603 48.3221 37.4578 47.2221 36.0255 47.1672C33.7293 47.0749 31.4336 47.0491 29.161 47.0676C26.8657 47.0862 24.5708 47.1492 22.2991 47.2786C20.8679 47.3568 19.7406 48.4753 19.6838 49.8735C19.5308 53.4247 19.5369 56.9746 19.7703 60.5227C19.8496 61.8976 20.9951 63.0198 22.4272 63.0526C24.7007 63.1451 26.9963 63.1708 29.2916 63.1522C31.5642 63.1337 33.8592 63.0707 36.1536 62.9411C37.5849 62.8851 38.712 61.7444 38.769 60.3684C38.7878 59.8801 38.8066 59.3918 38.8255 58.9258L36.9393 58.9411C36.9429 59.3848 36.9238 59.8287 36.9048 60.2948Z" fill="url(#paint4_linear_31_4256)"/>
<path d="M41.8403 47.2531L41.9662 62.7608L43.8297 62.7457L43.7186 49.0571L58.6721 48.9357L58.7833 62.6243L60.6468 62.6091L60.5209 47.1014L41.8403 47.2531Z" fill="url(#paint5_linear_31_4256)"/>
<path d="M79.34 48.7679L79.3252 46.9487L64.3717 47.0701L64.4976 62.5779L79.4512 62.4564L79.4364 60.6372L66.3463 60.7435L66.3056 55.7296L79.3957 55.6233L79.3809 53.804L66.2908 53.9103L66.2499 48.8742L79.34 48.7679Z" fill="url(#paint6_linear_31_4256)"/>
<path d="M97.6628 60.4892L97.5517 46.8007L95.6654 46.816L95.7766 60.5045L84.5728 60.5955L84.4616 46.907L82.5981 46.9221L82.7242 62.4521L98.8368 62.3212L98.8218 60.4798L97.6628 60.4892Z" fill="url(#paint7_linear_31_4256)"/>
<path d="M100.432 40.5738L100.452 43.1207L109.583 43.0466L109.739 62.2105L112.38 62.1891L112.224 43.0251L121.387 42.9507L121.367 40.4038L100.432 40.5738Z" fill="url(#paint8_linear_31_4256)"/>
<path d="M145.677 42.7535L145.657 40.2066L124.722 40.3766L124.898 62.0874L145.833 61.9174L145.812 59.3705L127.486 59.5193L127.429 52.4998L145.755 52.351L145.735 49.8041L127.408 49.9529L127.351 42.9023L145.677 42.7535Z" fill="url(#paint9_linear_31_4256)"/>
<path d="M177.537 39.9477L173.56 39.98L162.88 49.23L152.084 40.1544L148.107 40.1867L160.922 50.9543L148.283 61.8975L152.26 61.8652L162.908 52.6155L173.736 61.6909L177.713 61.6586L164.899 50.922L177.537 39.9477Z" fill="url(#paint10_linear_31_4256)"/>
<path d="M204.363 39.7299L204.44 49.3274L183.505 49.4974L183.428 39.8999L180.819 39.9211L180.995 61.6319L183.604 61.6107L183.526 52.0443L204.461 51.8743L204.539 61.4408L207.148 61.4196L206.971 39.7087L204.363 39.7299Z" fill="url(#paint11_linear_31_4256)"/>
<path d="M233.902 39.49L215.986 58.8007L215.127 58.8077L214.971 39.6438L212.363 39.6649L212.539 61.3758L217.152 61.3383L235.195 42.0266L235.927 42.0207L236.083 61.1846L238.692 61.1634L238.515 39.4526L233.902 39.49Z" fill="url(#paint12_linear_31_4256)"/>
<path d="M270.091 39.1962L265.414 39.2652L251.079 48.9487L246.625 48.9849L246.547 39.3874L243.938 39.4085L244.115 61.1505L246.724 61.1293L246.646 51.5318L251.132 51.4953L265.623 60.9758L270.267 60.9071L253.826 50.1999L270.091 39.1962Z" fill="url(#paint13_linear_31_4256)"/>
<path d="M294.846 38.9952L276.93 58.3059L276.071 58.3128L275.915 39.1489L273.307 39.1701L273.483 60.8809L278.096 60.8435L296.139 41.5318L296.871 41.5258L297.027 60.6898L299.636 60.6686L299.459 38.9577L294.846 38.9952Z" fill="url(#paint14_linear_31_4256)"/>
<path d="M36.9048 60.2948C36.8837 60.4946 36.7946 60.7172 36.6368 60.8738C36.479 61.0304 36.2752 61.1208 36.0479 61.1227C33.7989 61.2519 31.5267 61.3147 29.2769 61.3329C27.027 61.3512 24.7313 61.3255 22.4806 61.2328C22.2761 61.2345 22.0481 61.1476 21.8877 60.9936C21.7274 60.8396 21.6347 60.6184 21.6331 60.4188C21.423 56.9371 21.3943 53.4096 21.548 49.9472C21.5462 49.7253 21.6355 49.5249 21.7934 49.3683C21.9512 49.2117 22.1777 49.1211 22.3821 49.0973C24.6312 48.9903 26.926 48.9051 29.1758 48.8868C31.4257 48.8685 33.6988 48.9166 35.9494 48.9871C36.1768 49.0075 36.382 49.0945 36.5424 49.2485C36.7027 49.4026 36.7953 49.6015 36.8198 49.8232C36.8461 50.2667 36.8724 50.7102 36.8762 51.1761L38.7625 51.1608C38.7358 50.6729 38.7091 50.185 38.6826 49.7193C38.603 48.3221 37.4578 47.2221 36.0255 47.1672C33.7293 47.0749 31.4336 47.0491 29.161 47.0676C26.8657 47.0862 24.5708 47.1492 22.2991 47.2786C20.8679 47.3568 19.7406 48.4753 19.6838 49.8735C19.5308 53.4247 19.5369 56.9746 19.7703 60.5227C19.8496 61.8976 20.9951 63.0198 22.4272 63.0526C24.7007 63.1451 26.9963 63.1708 29.2916 63.1522C31.5642 63.1337 33.8592 63.0707 36.1536 62.9411C37.5849 62.8851 38.712 61.7444 38.769 60.3684C38.7878 59.8801 38.8066 59.3918 38.8255 58.9258L36.9393 58.9411C36.9429 59.3848 36.9238 59.8287 36.9048 60.2948Z" stroke="url(#paint15_linear_31_4256)"/>
<path d="M41.8403 47.2531L41.9662 62.7608L43.8297 62.7457L43.7186 49.0571L58.6721 48.9357L58.7833 62.6243L60.6468 62.6091L60.5209 47.1014L41.8403 47.2531Z" stroke="url(#paint16_linear_31_4256)"/>
<path d="M79.34 48.7679L79.3252 46.9487L64.3717 47.0701L64.4976 62.5779L79.4512 62.4564L79.4364 60.6372L66.3463 60.7435L66.3056 55.7296L79.3957 55.6233L79.3809 53.804L66.2908 53.9103L66.2499 48.8742L79.34 48.7679Z" stroke="url(#paint17_linear_31_4256)"/>
<path d="M97.6628 60.4892L97.5517 46.8007L95.6654 46.816L95.7766 60.5045L84.5728 60.5955L84.4616 46.907L82.5981 46.9221L82.7242 62.4521L98.8368 62.3212L98.8218 60.4798L97.6628 60.4892Z" stroke="url(#paint18_linear_31_4256)"/>
<path d="M100.432 40.5738L100.452 43.1207L109.583 43.0466L109.739 62.2105L112.38 62.1891L112.224 43.0251L121.387 42.9507L121.367 40.4038L100.432 40.5738Z" stroke="url(#paint19_linear_31_4256)"/>
<path d="M145.677 42.7535L145.657 40.2066L124.722 40.3766L124.898 62.0874L145.833 61.9174L145.812 59.3705L127.486 59.5193L127.429 52.4998L145.755 52.351L145.735 49.8041L127.408 49.9529L127.351 42.9023L145.677 42.7535Z" stroke="url(#paint20_linear_31_4256)"/>
<path d="M177.537 39.9477L173.56 39.98L162.88 49.23L152.084 40.1544L148.107 40.1867L160.922 50.9543L148.283 61.8975L152.26 61.8652L162.908 52.6155L173.736 61.6909L177.713 61.6586L164.899 50.922L177.537 39.9477Z" stroke="url(#paint21_linear_31_4256)"/>
<path d="M204.363 39.7299L204.44 49.3274L183.505 49.4974L183.428 39.8999L180.819 39.9211L180.995 61.6319L183.604 61.6107L183.526 52.0443L204.461 51.8743L204.539 61.4408L207.148 61.4196L206.971 39.7087L204.363 39.7299Z" stroke="url(#paint22_linear_31_4256)"/>
<path d="M233.902 39.49L215.986 58.8007L215.127 58.8077L214.971 39.6438L212.363 39.6649L212.539 61.3758L217.152 61.3383L235.195 42.0266L235.927 42.0207L236.083 61.1846L238.692 61.1634L238.515 39.4526L233.902 39.49Z" stroke="url(#paint23_linear_31_4256)"/>
<path d="M270.091 39.1962L265.414 39.2652L251.079 48.9487L246.625 48.9849L246.547 39.3874L243.938 39.4085L244.115 61.1505L246.724 61.1293L246.646 51.5318L251.132 51.4953L265.623 60.9758L270.267 60.9071L253.826 50.1999L270.091 39.1962Z" stroke="url(#paint24_linear_31_4256)"/>
<path d="M294.846 38.9952L276.93 58.3059L276.071 58.3128L275.915 39.1489L273.307 39.1701L273.483 60.8809L278.096 60.8435L296.139 41.5318L296.871 41.5258L297.027 60.6898L299.636 60.6686L299.459 38.9577L294.846 38.9952Z" stroke="url(#paint25_linear_31_4256)"/>
<defs>
<linearGradient id="paint0_linear_31_4256" x1="36.6046" y1="11.4861" x2="134.689" y2="15.6781" gradientUnits="userSpaceOnUse">
<stop offset="0.129677" stop-color="white"/>
<stop offset="1" stop-color="#8AC2E1"/>
</linearGradient>
<linearGradient id="paint1_linear_31_4256" x1="36.6046" y1="11.4861" x2="134.689" y2="15.6781" gradientUnits="userSpaceOnUse">
<stop offset="0.129677" stop-color="white"/>
<stop offset="1" stop-color="#8AC2E1"/>
</linearGradient>
<linearGradient id="paint2_linear_31_4256" x1="219.126" y1="10.0039" x2="293.914" y2="12.2943" gradientUnits="userSpaceOnUse">
<stop offset="0.129677" stop-color="white"/>
<stop offset="1" stop-color="#8AC2E1"/>
</linearGradient>
<linearGradient id="paint3_linear_31_4256" x1="219.126" y1="10.0039" x2="293.914" y2="12.2943" gradientUnits="userSpaceOnUse">
<stop offset="0.129677" stop-color="white"/>
<stop offset="1" stop-color="#8AC2E1"/>
</linearGradient>
<linearGradient id="paint4_linear_31_4256" x1="46.3996" y1="51.8771" x2="298.285" y2="75.4287" gradientUnits="userSpaceOnUse">
<stop offset="0.129677" stop-color="white"/>
<stop offset="1" stop-color="#8AC2E1"/>
</linearGradient>
<linearGradient id="paint5_linear_31_4256" x1="46.3996" y1="51.8771" x2="298.285" y2="75.4287" gradientUnits="userSpaceOnUse">
<stop offset="0.129677" stop-color="white"/>
<stop offset="1" stop-color="#8AC2E1"/>
</linearGradient>
<linearGradient id="paint6_linear_31_4256" x1="46.3996" y1="51.8771" x2="298.285" y2="75.4287" gradientUnits="userSpaceOnUse">
<stop offset="0.129677" stop-color="white"/>
<stop offset="1" stop-color="#8AC2E1"/>
</linearGradient>
<linearGradient id="paint7_linear_31_4256" x1="46.3996" y1="51.8771" x2="298.285" y2="75.4287" gradientUnits="userSpaceOnUse">
<stop offset="0.129677" stop-color="white"/>
<stop offset="1" stop-color="#8AC2E1"/>
</linearGradient>
<linearGradient id="paint8_linear_31_4256" x1="46.3996" y1="51.8771" x2="298.285" y2="75.4287" gradientUnits="userSpaceOnUse">
<stop offset="0.129677" stop-color="white"/>
<stop offset="1" stop-color="#8AC2E1"/>
</linearGradient>
<linearGradient id="paint9_linear_31_4256" x1="46.3996" y1="51.8771" x2="298.285" y2="75.4287" gradientUnits="userSpaceOnUse">
<stop offset="0.129677" stop-color="white"/>
<stop offset="1" stop-color="#8AC2E1"/>
</linearGradient>
<linearGradient id="paint10_linear_31_4256" x1="46.3996" y1="51.8771" x2="298.285" y2="75.4287" gradientUnits="userSpaceOnUse">
<stop offset="0.129677" stop-color="white"/>
<stop offset="1" stop-color="#8AC2E1"/>
</linearGradient>
<linearGradient id="paint11_linear_31_4256" x1="46.3996" y1="51.8771" x2="298.285" y2="75.4287" gradientUnits="userSpaceOnUse">
<stop offset="0.129677" stop-color="white"/>
<stop offset="1" stop-color="#8AC2E1"/>
</linearGradient>
<linearGradient id="paint12_linear_31_4256" x1="46.3996" y1="51.8771" x2="298.285" y2="75.4287" gradientUnits="userSpaceOnUse">
<stop offset="0.129677" stop-color="white"/>
<stop offset="1" stop-color="#8AC2E1"/>
</linearGradient>
<linearGradient id="paint13_linear_31_4256" x1="46.3996" y1="51.8771" x2="298.285" y2="75.4287" gradientUnits="userSpaceOnUse">
<stop offset="0.129677" stop-color="white"/>
<stop offset="1" stop-color="#8AC2E1"/>
</linearGradient>
<linearGradient id="paint14_linear_31_4256" x1="46.3996" y1="51.8771" x2="298.285" y2="75.4287" gradientUnits="userSpaceOnUse">
<stop offset="0.129677" stop-color="white"/>
<stop offset="1" stop-color="#8AC2E1"/>
</linearGradient>
<linearGradient id="paint15_linear_31_4256" x1="46.3996" y1="51.8771" x2="298.285" y2="75.4287" gradientUnits="userSpaceOnUse">
<stop offset="0.129677" stop-color="white"/>
<stop offset="1" stop-color="#8AC2E1"/>
</linearGradient>
<linearGradient id="paint16_linear_31_4256" x1="46.3996" y1="51.8771" x2="298.285" y2="75.4287" gradientUnits="userSpaceOnUse">
<stop offset="0.129677" stop-color="white"/>
<stop offset="1" stop-color="#8AC2E1"/>
</linearGradient>
<linearGradient id="paint17_linear_31_4256" x1="46.3996" y1="51.8771" x2="298.285" y2="75.4287" gradientUnits="userSpaceOnUse">
<stop offset="0.129677" stop-color="white"/>
<stop offset="1" stop-color="#8AC2E1"/>
</linearGradient>
<linearGradient id="paint18_linear_31_4256" x1="46.3996" y1="51.8771" x2="298.285" y2="75.4287" gradientUnits="userSpaceOnUse">
<stop offset="0.129677" stop-color="white"/>
<stop offset="1" stop-color="#8AC2E1"/>
</linearGradient>
<linearGradient id="paint19_linear_31_4256" x1="46.3996" y1="51.8771" x2="298.285" y2="75.4287" gradientUnits="userSpaceOnUse">
<stop offset="0.129677" stop-color="white"/>
<stop offset="1" stop-color="#8AC2E1"/>
</linearGradient>
<linearGradient id="paint20_linear_31_4256" x1="46.3996" y1="51.8771" x2="298.285" y2="75.4287" gradientUnits="userSpaceOnUse">
<stop offset="0.129677" stop-color="white"/>
<stop offset="1" stop-color="#8AC2E1"/>
</linearGradient>
<linearGradient id="paint21_linear_31_4256" x1="46.3996" y1="51.8771" x2="298.285" y2="75.4287" gradientUnits="userSpaceOnUse">
<stop offset="0.129677" stop-color="white"/>
<stop offset="1" stop-color="#8AC2E1"/>
</linearGradient>
<linearGradient id="paint22_linear_31_4256" x1="46.3996" y1="51.8771" x2="298.285" y2="75.4287" gradientUnits="userSpaceOnUse">
<stop offset="0.129677" stop-color="white"/>
<stop offset="1" stop-color="#8AC2E1"/>
</linearGradient>
<linearGradient id="paint23_linear_31_4256" x1="46.3996" y1="51.8771" x2="298.285" y2="75.4287" gradientUnits="userSpaceOnUse">
<stop offset="0.129677" stop-color="white"/>
<stop offset="1" stop-color="#8AC2E1"/>
</linearGradient>
<linearGradient id="paint24_linear_31_4256" x1="46.3996" y1="51.8771" x2="298.285" y2="75.4287" gradientUnits="userSpaceOnUse">
<stop offset="0.129677" stop-color="white"/>
<stop offset="1" stop-color="#8AC2E1"/>
</linearGradient>
<linearGradient id="paint25_linear_31_4256" x1="46.3996" y1="51.8771" x2="298.285" y2="75.4287" gradientUnits="userSpaceOnUse">
<stop offset="0.129677" stop-color="white"/>
<stop offset="1" stop-color="#8AC2E1"/>
</linearGradient>
</defs>
</svg>
