<svg width="219" height="73" viewBox="0 0 219 73" fill="none" xmlns="http://www.w3.org/2000/svg">
<path d="M21.9028 64.6584C23.2213 65.7859 29.7794 70.863 41.1452 70.9603C41.6634 66.593 44.951 56.0669 55.1653 52.6841L55.6144 52.5353L55.9483 52.8673C57.3532 54.2639 59.8866 58.614 60.1342 63.05C66.9974 58.7685 73.7628 45.9529 73.0949 32.9255C72.5882 23.0576 67.7978 9.76687 47.922 2.27439L40.7018 9.57799L35.3817 6.71607C35.3299 6.67601 34.4029 6.02349 33.591 5.17064C33.0959 6.17231 32.4395 7.13964 31.4204 8.63928C31.1267 9.06857 30.8043 9.54364 30.4473 10.076C29.0251 12.1995 29.9694 15.5537 32.6007 17.7115L33.1016 18.1237L32.7734 18.6846C31.4319 20.9856 31.4779 25.0209 34.2071 27.9629L34.5065 28.2834L34.3798 28.7013C33.4701 31.672 32.9231 33.4635 30.3379 35.9019L30.073 36.1537L29.7103 36.1079C27.3669 35.8046 25.0465 35.0204 23.6416 34.2763C23.3422 36.0163 23.3883 39.1072 24.8968 42.9593L25.3747 44.19L24.062 43.9953C15.4657 42.7018 7.70422 37.8251 1.51465 29.8461C1.45707 36.5029 4.36473 52.2949 21.4019 59.3237L21.851 59.5069L21.874 59.9934C21.9719 62.157 21.9201 63.9257 21.8913 64.6641L21.9028 64.6584ZM41.4734 72.4943C27.8736 72.4943 20.8722 65.8146 20.5843 65.5341L20.3367 65.2937L20.3597 64.9445C20.3597 64.9445 20.4691 63.0328 20.377 60.5429C0.748868 52.1518 -0.581169 32.4561 0.144306 27.6023L0.426436 25.7249L1.53192 27.2761C7.36451 35.4783 14.7747 40.6355 23.0256 42.2553C21.6322 38.0254 21.8107 34.5682 22.444 32.7995L22.8183 31.7578L23.6647 32.479C24.3729 33.08 26.8314 34.1275 29.5548 34.5396C31.5125 32.6107 32.0422 31.1282 32.7965 28.6669C30.0615 25.4502 29.9003 21.2202 31.1613 18.4843C28.2478 15.7883 27.3842 11.9019 29.1748 9.22883C29.5318 8.69079 29.86 8.21572 30.1537 7.78071C31.547 5.73158 32.1804 4.79859 32.6755 3.41343L33.234 1.86799L34.0632 3.2875C34.5583 4.13463 35.7675 5.10196 36.2396 5.43966L40.4255 7.68912L47.5363 0.5L48.0027 0.671715C64.4295 6.71607 73.8895 18.1466 74.638 32.8511C75.3807 47.3839 67.5214 61.2298 59.7139 65.0361L58.5393 65.6085L58.6142 64.3092C58.8387 60.251 56.4723 55.878 55.1826 54.304C43.8686 58.4022 42.6249 71.6414 42.6192 71.7731L42.5789 72.4885L41.4791 72.5" fill="white"/>
<path d="M0.904228 27.7171C0.351485 31.4089 0.777556 51.6312 21.1197 60.0223C21.2463 62.8213 21.1197 64.9849 21.1197 64.9849C21.1197 64.9849 28.1556 71.8535 41.8475 71.7275C41.9742 69.438 44.2773 57.0975 55.4128 53.4113C56.8177 54.8079 59.9844 60.3772 59.328 65.2367C75.5073 57.9617 88.5831 15.0331 48.3423 0.820801L40.5693 8.64527L35.8364 6.10389C35.8364 6.10389 34.1091 4.89044 33.4067 3.68844C32.7676 5.46855 31.8981 6.57324 29.8254 9.66411C28.1614 12.1425 29.1863 15.8974 32.1285 18.3128C30.7236 20.7283 30.5911 25.1814 33.6658 28.4898C32.7676 31.4146 32.2609 33.0688 29.8254 35.3584C26.8832 34.9749 24.0676 33.8301 23.1694 33.0688C22.5303 34.8489 22.4036 38.6667 24.1943 43.2458C19.9739 42.6104 9.86327 40.3209 0.909986 27.7285" fill="#231F20"/>
<path d="M60.3302 64.7331C60.3302 64.0291 60.1402 62.684 60.0538 62.1116C59.8177 60.7836 59.7602 59.2897 57.9004 55.5578C57.2383 54.3157 55.7758 52.4669 55.6434 52.4841C53.7491 52.9821 50.5938 54.7622 48.7686 56.1817C46.8571 57.6699 45.0203 60.0338 43.5636 62.3978C43.3391 62.7641 43.103 63.1419 42.8727 63.5425C41.963 65.5459 41.3815 67.698 41.1569 69.8674C41.0936 70.1707 41.2375 70.394 40.9554 70.4397C36.5277 71.1838 32.1057 69.7243 28.012 68.1559C26.8662 67.7152 25.4152 67.1829 24.2349 66.4044C23.0891 65.7233 22.07 64.6243 21.9088 63.2907C21.8166 61.8941 21.7245 60.4746 21.9318 59.0894C19.9627 58.1278 17.8668 57.3093 16.1395 55.9527C15.2183 55.2315 14.297 54.4703 13.4103 53.6689C12.2012 52.6844 11.0439 51.6141 9.97297 50.3949C7.45108 47.5044 5.4186 44.3505 4.13463 40.8132C3.67401 39.8173 3.27096 38.7984 2.97156 37.7395C2.78731 37.1671 2.56276 36.5948 2.43609 36.0109C2.07911 34.7173 1.92365 33.8187 1.82577 32.6968C1.79698 32.4049 1.79123 32.1073 1.79123 31.8154C1.79123 31.5921 1.77971 30.8709 2.02153 30.745C2.20002 30.6477 2.49367 31.0884 2.61458 31.2544C5.76982 35.3928 10.0651 38.4607 14.5964 40.962C16.2604 41.8779 18.3793 43.0398 20.573 43.7782C20.9415 43.8755 21.3157 43.9613 21.6957 44.03C22.9912 44.259 24.281 44.3448 25.5649 44.3334C23.9585 41.5401 23.6188 38.2432 23.6879 35.0779C23.6879 34.8604 23.8491 34.746 24.0161 34.7231C25.5649 35.9022 27.8508 36.3773 29.7163 36.4173C29.7508 36.4173 29.8948 36.383 29.9235 36.3658C32.0539 35.0551 34.5585 30.9797 34.5931 28.1807C34.0806 27.6427 33.9828 27.2249 33.5452 26.5266C33.2861 26.0286 33.0097 25.5421 32.7564 25.0269C32.2727 24.0424 31.8581 22.8919 32.0769 21.7815C32.1633 20.4479 32.6815 19.1428 33.2746 17.7519C31.3515 16.6987 29.5896 14.5695 29.8257 12.28C29.866 11.8736 29.8545 11.3584 29.9869 11.0093C30.5627 9.16619 32.0309 7.86688 33.027 6.36724C33.0961 6.17835 33.5624 4.99925 33.8388 5.33695C34.57 6.2127 35.4855 6.83087 36.4413 7.39753C37.2992 7.78103 38.1686 8.14735 38.9459 8.68539C39.4065 9.0002 39.752 9.55541 40.2817 9.76147C40.8633 9.99042 41.2145 9.57258 41.629 9.20053C43.0857 7.88405 44.2546 6.28138 45.6422 4.89049C46.0222 4.507 49.1314 1.03264 49.4135 1.20435C49.1371 1.03836 48.7456 0.986846 48.3541 0.84375L40.5811 8.66822L35.8483 6.12684C35.8483 6.12684 34.1209 4.91339 33.4185 3.71139C32.7794 5.4915 31.91 6.59619 29.8372 9.68706C28.1732 12.1655 29.1981 15.9203 32.1403 18.3358C30.7527 20.7226 30.6145 25.0899 33.5682 28.3811C32.6067 31.7352 32.2209 33.1376 29.8372 35.3813C26.895 34.9978 24.0794 33.853 23.1812 33.0918C22.5421 34.8719 22.4155 38.6897 24.2061 43.2687C19.9857 42.6334 9.87509 40.3439 0.921806 27.7515C0.369063 31.4433 0.795134 51.6656 21.1372 60.0567C21.2639 62.8557 21.1372 65.0193 21.1372 65.0193C21.1372 65.0193 28.1732 71.8879 41.8651 71.7619C41.9918 69.4724 44.2949 57.1318 55.4303 53.4457C56.8352 54.8423 59.9732 60.6005 59.3456 65.2711C59.6623 65.1166 60.0308 64.962 60.3474 64.7732" fill="#4E9DD9"/>
<path d="M36.6426 9.13138C36.5159 9.06842 36.4123 9.01118 36.349 8.97684C36.3144 8.95395 36.2799 8.94822 36.2453 8.93677C36.0841 8.85092 35.9402 8.76506 35.8193 8.67348C34.9959 8.0782 34.2935 7.44858 33.7407 6.65869C33.7177 6.69303 32.5086 9.08559 31.3513 10.1846C31.2822 10.3162 31.2131 10.4479 31.1555 10.5795C30.05 13.1438 31.737 15.399 33.948 16.6067C34.0459 16.6582 34.2244 16.8872 34.2359 16.87C34.8635 16.0171 35.6811 15.2273 35.8365 14.1397C35.992 13.0637 35.468 12.1135 34.9786 11.192C34.9095 11.0546 34.1668 9.34889 34.328 9.29737C34.4144 9.27448 36.8729 12.434 38.5254 12.2623C38.9112 11.9132 39.4121 11.4095 39.7921 11.0546C39.5272 10.5967 37.0341 9.32599 36.6311 9.13138" fill="#4E9DD9"/>
<path d="M44.7898 37.9854C44.8646 37.8881 45.8434 37.0009 46.3444 36.7948C47.2138 36.4342 47.2599 37.0123 46.8856 37.3329C46.1371 37.9854 45.6592 38.7925 45.3828 39.6739C45.4174 40.0574 45.354 40.6298 45.4001 41.0076C46.4595 40.687 47.5305 41.0305 47.7781 42.1294C47.8529 42.3126 47.9565 43.0739 47.7665 43.486C47.8702 43.9553 47.0929 44.6937 46.5171 44.6937L45.5556 44.6594C45.6189 45.2947 45.5498 45.9014 45.521 46.2163C45.4865 46.6627 45.6016 46.9317 45.3425 47.2981C44.6573 48.2654 43.1834 48.1108 41.8591 47.9506C40.5233 47.5842 39.5099 47.1607 39.5042 46.8859C39.4581 44.9169 39.5675 41.0018 39.8266 40.3665C40.0799 40.046 40.6557 40.046 40.6557 40.5897C40.6557 40.8874 40.5981 41.1793 40.5751 41.4712C40.6327 42.8793 40.5636 44.6765 41.0703 45.455C41.767 45.6095 43.4425 45.787 44.047 45.392C43.9722 42.719 43.7994 39.0844 44.784 37.9854H44.7898ZM48.5208 18.8621C48.7972 18.7533 49.1369 18.6675 49.2923 18.5645C50.1502 18.0321 49.7126 17.0591 49.7126 16.2349C49.776 15.1073 49.7645 14.5349 50.2136 13.4989C50.346 13.1955 50.6972 13.2871 50.8527 13.4989C51.5724 14.1342 50.7145 15.5823 50.7721 16.521C50.8181 17.2594 52.0215 17.5685 53.3976 16.9961C53.9446 16.7672 54.5952 16.1604 55.2228 16.2635C55.7986 16.3608 55.2919 17.2594 54.9349 17.5628C54.2325 18.1695 53.3055 18.1638 52.4303 18.2554C51.3939 18.3641 50.7836 18.8049 49.8911 19.2857C49.3672 19.5661 49.1714 20.0813 48.5553 19.7149C47.8126 19.2685 48.0947 19.0338 48.5208 18.8621ZM51.25 1.93102C48.7857 4.23772 45.665 7.08818 43.1603 9.34337C42.0836 10.574 40.9091 11.879 39.5387 12.749C38.6232 13.6534 37.7308 14.5807 36.8729 15.5423C36.7117 15.7312 36.5447 15.9143 36.3777 16.0975C35.1571 17.4941 33.7579 19.2227 33.7061 21.1344C33.6601 22.823 34.3164 23.9849 35.0419 25.433C35.5544 26.4576 35.7732 27.2418 36.1589 28.1003C36.1013 29.1593 35.8538 30.533 35.4047 31.6548C34.708 33.4063 33.5795 35.1635 31.8694 36.915C31.2648 37.579 30.9367 37.682 30.2572 37.6878C29.9866 37.6878 29.0136 37.6649 28.7717 37.6477C28.029 37.5904 27.1769 37.5218 26.3708 37.3214C26.3823 40.5611 29.1921 43.0682 31.2476 45.2947C30.9367 45.6897 28.4148 46.325 23.1061 45.5752C20.377 45.186 17.9817 44.1385 15.5347 42.9136C13.5195 41.9005 11.4582 40.8015 9.50634 39.5423C7.66963 38.4662 5.95382 37.2127 4.55469 35.6501C5.1247 40.8187 8.9536 45.5351 12.6213 48.9694C16.3408 52.4552 20.6073 55.0309 25.5474 55.9983C27.6144 56.1356 29.5836 55.3915 31.1842 53.7831C31.4203 53.5427 31.8349 53.7202 31.8406 54.0522C31.8464 54.9737 31.737 55.9639 31.5527 56.7538C31.1612 58.1104 31.0633 59.0319 29.3475 59.4268C28.7717 59.5585 27.862 59.6959 27.269 59.7474C26.4283 59.8962 24.2116 60.0221 24.1656 60.0336C23.8258 60.9608 24.2346 62.1457 24.4534 62.512C24.7989 63.0271 25.2538 63.7025 26.0195 64.0689C26.7277 64.3837 27.4935 64.6756 28.4493 64.7386C29.1172 64.7843 30.6891 64.8359 31.3627 64.6126C31.6161 62.5463 32.6985 59.7817 35.5832 59.7817C36.6368 59.7817 36.562 61.1898 36.1589 61.2127C35.0131 61.2756 34.7022 62.0827 34.6446 63.0443C34.6043 64.1433 35.9804 66.2039 37.5811 67.0052C38.0072 67.217 38.4275 67.423 38.8536 67.5261C39.4005 63.9887 44.4098 58.3851 44.4155 58.3794C46.0622 56.4047 48.2962 54.6131 50.5533 53.2909C50.6569 53.2165 52.0445 52.3808 52.6952 52.0603C53.53 51.6596 55.027 51.3105 56.311 50.366C56.4722 49.4674 56.121 48.523 56.4089 46.2792C56.5874 44.8769 56.9847 43.6062 57.6698 42.2554C58.7465 40.1318 60.6811 37.5046 60.6811 35.5928C60.1111 34.305 59.2475 33.2632 58.6659 32.4905C57.4107 31.0195 55.9771 29.806 54.7334 28.4667C53.5012 27.1387 52.4073 25.6391 52.1079 23.8132C52.0215 23.3038 52.0388 22.7886 52.2173 22.2964C52.58 21.3004 53.3746 20.5163 54.3822 20.1614C55.407 19.8008 56.6853 20.0584 57.4568 19.1254C59.5238 16.6184 57.7389 13.0753 57.8541 10.1962C56.3283 10.4252 54.4801 10.1962 52.7642 10.1447C51.1463 9.91575 49.5284 9.93292 48.2272 10.9289C47.3002 11.6386 46.9892 12.8349 46.8626 13.9339C46.6898 15.4679 47.2541 18.221 44.6228 18.2725C44.0355 18.284 43.477 18.1352 42.907 18.0207C42.9415 17.9291 43.0164 17.849 43.1546 17.8204C43.7822 17.6944 45.0719 17.6315 45.521 17.0877C46.0277 16.4695 45.8204 15.3877 45.8492 14.6551C45.9068 13.2012 46.2695 11.6157 47.2944 10.511C49.4823 8.16426 52.7239 8.54776 55.6258 8.80533C56.5413 8.88546 57.4453 8.85685 58.3665 8.86257C58.5796 8.86257 59.0863 8.77099 59.3626 8.85112C59.3166 9.21745 59.3972 10.2306 59.4375 10.4423C59.9269 14.1399 61.2684 18.6274 58.5162 20.6594C58.1362 20.8311 57.7332 20.9513 57.2956 21.0257C56.0807 21.2203 54.8025 21.1516 53.9964 22.2277C53.6106 22.7428 53.8064 23.527 53.9388 24.0937C54.0713 24.6546 54.3649 25.1526 54.7392 25.6048C56.0577 27.837 59.1438 29.6744 60.5027 31.1683C61.4066 32.1643 62.9785 34.036 63.1685 35.3009C63.2203 35.6558 62.656 36.4686 62.5179 36.8006C62.0515 37.951 61.4527 39.0271 60.8596 40.1204C60.1111 41.5113 59.092 43.6749 61.2972 44.791C62.2703 45.2833 64.3431 44.9914 65.5176 44.6937C65.5176 43.4516 65.6155 42.8335 65.6789 41.4483C65.7767 39.3248 65.9552 37.0009 65.9034 34.8774C65.8746 34.8144 66.8304 34.8144 66.8477 34.9575C67.3486 38.5463 68.2756 42.0608 68.218 45.7011C70.3196 44.293 73.0373 41.8432 74.6782 39.9258C76.2386 27.0758 72.6227 11.0834 51.2557 1.92529" fill="#4E9DD9"/>
<path d="M44.3466 45.3981C44.2718 42.7251 44.0875 39.3137 45.0663 38.209C45.3254 37.9113 45.6882 37.3847 46.9031 36.7036C46.0855 36.4518 44.7036 37.3847 44.3697 37.8026C44.0184 38.2433 43.9321 38.8214 43.8342 39.3766C43.673 40.2638 43.6154 41.1567 43.5233 42.0554C43.4196 43.0284 43.0339 44.9116 42.2969 45.6213C42.7978 45.8045 43.7478 45.793 44.3466 45.3981Z" fill="#2C5E9D"/>
<path d="M31.6337 52.037C30.2345 51.9855 28.916 52.5121 27.5226 52.5521C23.2792 52.6723 19.5136 50.7606 15.8862 48.7744C16.1971 50.0394 16.7269 51.871 18.1433 53.136C20.2851 54.67 22.761 55.9864 25.5535 55.9864C27.4593 55.9864 29.9006 55.3511 31.1903 54.0575C31.4264 53.8171 31.8409 53.9945 31.8467 54.3265C31.8467 54.3323 31.8467 54.3437 31.8467 54.3494C32.0885 53.571 32.1518 52.5693 31.6452 52.0313" fill="#2C5E9D"/>
<path d="M58.6599 32.4851C57.4047 31.0141 55.9422 29.8293 54.7274 28.4613C53.8407 27.4653 52.9943 26.5152 52.3321 24.7408C52.1652 24.3001 52.1364 22.5772 52.2746 22.125C50.2939 24.6206 53.357 30.4474 54.1689 32.7999C55.1189 35.5588 56.5929 38.1689 54.854 40.8476C54.5834 41.2655 53.3052 42.7022 53.0461 43.12C52.4991 43.9957 52.3321 44.8028 51.1057 44.5509C50.5645 44.4422 49.983 44.1388 49.7527 43.618C49.4072 42.8281 49.4936 41.9523 49.0675 41.1739C48.8199 40.716 48.4514 40.3325 48.0081 40.0577C47.7259 39.886 46.488 39.5426 46.6147 39.0961C46.6723 38.8958 47.1156 37.0012 47.0984 36.9898C46.4362 37.6194 45.6474 38.85 45.3825 39.6685C45.4171 40.052 45.3538 40.6244 45.3998 41.0022C46.4592 40.6816 47.5302 41.0251 47.7778 42.124C47.8526 42.3072 47.9563 43.0685 47.7662 43.4806C47.8699 43.9499 47.0926 44.6883 46.5168 44.6883L45.5553 44.654C45.6186 45.2893 45.5495 45.896 45.5207 46.2109C45.4862 46.6573 45.6013 46.9263 45.3422 47.2927C44.6571 48.26 43.2925 47.8994 41.9682 47.7391C40.6324 47.3728 40.0336 47.4873 39.6997 46.8176C39.3024 46.022 39.8263 44.8085 39.5384 43.5092C38.9454 45.793 38.479 48.1455 38.6345 50.4637C38.7324 51.9576 38.9051 56.6912 38.8993 57.4696C38.8993 57.6929 38.7266 57.8302 38.5136 57.8531C37.4541 57.9504 36.412 58.0821 35.3756 58.3053C32.8076 59.4386 30.8615 61.7568 30.2915 64.7446C30.5448 64.882 31.1033 64.6759 31.3509 64.5958C31.6043 62.5295 32.6867 59.7649 35.5714 59.7649C36.625 59.7649 36.5502 61.1729 36.1471 61.1958C35.0013 61.2588 34.6904 62.0659 34.6328 63.0275C34.5925 64.1264 35.9686 66.187 37.5693 66.9883C37.9954 67.2001 38.4157 67.4062 38.8417 67.5092C39.3887 63.9719 44.398 58.3683 44.4037 58.3625C45.6301 56.8915 48.6817 54.3158 51.837 52.6044C52.6488 52.1636 55.1016 51.6657 57.3068 50.8414C56.7771 49.3647 56.2186 47.8135 56.5065 45.5698C56.685 44.1675 56.9729 43.5893 57.658 42.2385C58.7347 40.115 61.0033 37.5393 61.0033 35.6275C60.4333 34.3396 59.2357 33.2464 58.6541 32.4737" fill="#2C5E9D"/>
<path d="M29.0542 39.8799C29.3536 40.5553 30.7009 42.2553 31.0982 42.8734C31.3055 43.194 31.4379 43.3657 31.8525 43.835C32.2152 44.1499 32.6067 44.436 33.027 44.665C34.3168 45.369 34.7371 44.3559 35.0365 43.2054C35.2495 42.2209 35.428 41.431 35.3704 40.7499C33.6258 41.2422 30.7009 40.5038 29.0542 39.8799Z" fill="#2C5E9D"/>
<path d="M47.093 43.2055H45.5557V41.6772H47.093V43.2055Z" fill="#4E9DD9"/>
<path d="M41.0648 37.6364C40.5581 39.2104 40.7942 41.7861 41.8651 42.2154C43.2412 41.6888 42.2221 39.3592 42.7979 37.8252C43.3045 36.4687 43.5924 35.9879 44.7785 34.6313C43.103 34.8717 41.4908 36.3084 41.0648 37.6364Z" fill="white"/>
<path d="M28.432 41.1222C27.9944 40.0862 27.7468 39.2161 29.3129 38.9128C36.3489 37.5448 39.7459 30.8594 36.7116 26.183C35.324 24.048 34.5237 21.8901 36.3374 19.5548C39.3717 15.6512 42.9933 12.4286 46.5343 9.20613C48.2616 7.63208 51.6299 4.28364 54.0136 3.16177C53.5069 2.92137 52.246 2.27458 51.2614 1.93115C48.7971 4.23785 45.6764 7.08832 43.1718 9.34351C40.9032 11.3926 37.7422 14.5808 36.8786 15.5424C36.7174 15.7313 36.5504 15.9145 36.3834 16.0976C35.1628 17.4942 33.7636 19.2228 33.7118 21.1346C33.6658 22.8231 34.3221 23.9851 35.0476 25.4332C35.5601 26.4577 35.7789 27.2419 36.1646 28.1005C36.107 29.1594 35.8595 30.5331 35.4104 31.655C34.7137 33.4065 33.5852 35.1637 31.8751 36.9152C31.2705 37.5791 30.9424 37.6822 30.2629 37.6879C29.9923 37.6879 29.0193 37.665 28.7774 37.6478C28.0347 37.5906 27.1825 37.5219 26.3765 37.3216C26.388 40.3609 27.9023 43.3716 31.2533 45.2949C31.0345 45.0831 28.8235 42.0323 28.4377 41.1279" fill="white"/>
<path d="M23.1003 45.5633C20.3711 45.1741 17.9759 44.1266 15.5288 42.9017C13.5136 41.8886 11.4524 40.7896 9.50049 39.5304C7.66377 38.4543 5.94796 37.2008 4.54883 35.6382C5.11884 40.8068 7.69256 44.865 11.343 48.3222C12.2757 49.2037 15.4597 51.4417 15.4713 51.4245C14.2103 50.0393 10.0014 45.5061 9.66746 45.031C9.08017 44.1953 7.84226 42.2149 7.46225 40.3088C8.2453 40.698 11.2796 42.2149 12.8342 43.0734C21.9487 48.1276 30.3493 46.3646 31.2417 45.2828C29.9635 45.6492 27.8907 46.2444 23.1003 45.5633Z" fill="white"/>
<path d="M58.3263 17.2423C58.9482 14.9928 58.3436 13.7736 58.2745 12.7434C58.263 12.5316 57.716 10.2134 57.8427 10.1963C56.5011 10.3966 55.1941 10.1104 53.6683 10.036C52.2865 10.1333 50.0237 9.45788 48.2157 10.9289C46.713 12.1252 46.5863 15.1531 46.2466 17.5743C47.1678 15.9888 46.8166 13.1726 48.6821 11.776C51.1061 9.96158 54.8544 11.1235 57.0308 10.9289C57.7045 12.0279 58.2803 14.1743 58.3263 17.2423Z" fill="white"/>
<path d="M46.9031 43.0739H45.5615V41.7402H46.9031V43.0739Z" fill="white"/>
<path d="M35.687 8.31858C34.9558 7.73475 34.0691 7.15092 33.6891 6.28662C33.6143 6.92197 33.3552 7.31119 33.0558 7.82633C32.4109 8.94248 31.2593 9.80677 30.8045 11.0202C30.5972 11.5697 30.5108 12.2394 30.5511 12.8347C30.6145 13.7505 31.2075 14.5518 31.9215 14.9868C31.2593 13.5959 31.3227 12.1993 31.8985 11.1805C32.313 10.3563 33.3552 9.32597 33.9137 8.26706C33.8388 8.41016 35.2552 9.25729 35.4222 9.32025C35.998 9.5492 36.971 9.76098 38.1226 9.92125C37.0459 9.30308 36.2801 8.78793 35.687 8.31286" fill="white"/>
<path d="M85 28.3048V30.2276H91.3404V44.6952H93.174V30.2276H99.5365V28.3048H85Z" fill="url(#paint0_linear_2_6879)"/>
<path d="M116.403 30.2276V28.3048H101.866V44.6952H116.403V42.7724H103.678V37.4731H116.403V35.5503H103.678V30.2276H116.403Z" fill="url(#paint1_linear_2_6879)"/>
<path d="M138.539 28.3048H135.778L128.31 35.2221L120.866 28.3048H118.104L126.941 36.5117L118.104 44.6952H120.866L128.31 37.7779L135.778 44.6952H138.539L129.702 36.5117L138.539 28.3048Z" fill="url(#paint2_linear_2_6879)"/>
<path d="M156.415 34.5421H142.629V30.2276H157.829V28.3048H140.818V44.6952H156.437C157.806 44.6248 158.911 43.4524 158.977 41.9752V37.2621C158.911 35.7848 157.806 34.6124 156.415 34.5421ZM157.166 41.9048C157.166 42.1159 157.077 42.3503 156.923 42.5145C156.768 42.6786 156.547 42.7724 156.348 42.7724H142.629V36.5117L156.326 36.4883C156.547 36.4883 156.768 36.5821 156.923 36.7462C157.077 36.9103 157.166 37.1214 157.166 37.3559V41.9048Z" fill="url(#paint3_linear_2_6879)"/>
<path d="M171.857 28.3048H167.836L160.767 44.6952H162.755L164.28 41.1779H175.414L176.938 44.6952H178.927L171.857 28.3048ZM165.119 39.2317L169.007 30.2276H170.686L174.574 39.2317H165.119Z" fill="url(#paint4_linear_2_6879)"/>
<path d="M198.955 33.7683V30.8841C198.888 29.4069 197.784 28.2345 196.392 28.1641C194.161 28.0469 192.018 28 189.809 28C187.577 28 185.346 28.0469 183.115 28.1641C181.745 28.2345 180.618 29.4069 180.552 30.8841C180.53 31.3766 180.508 31.8924 180.508 32.4083H182.32C182.342 31.9159 182.342 31.4469 182.386 30.9779C182.386 30.7434 182.474 30.5324 182.629 30.3683C182.783 30.2041 182.982 30.1103 183.203 30.0869C185.39 29.9931 187.622 29.9228 189.809 29.9228C191.996 29.9228 194.117 29.9931 196.304 30.0869C196.525 30.1103 196.746 30.2041 196.9 30.3683C197.055 30.5324 197.143 30.7434 197.143 30.9779V33.6745C197.143 33.909 197.033 34.12 196.878 34.2841C196.723 34.4483 196.525 34.5421 196.304 34.5421H186.451V36.5117L196.304 36.4883C196.525 36.4883 196.746 36.5821 196.9 36.7462C197.055 36.9103 197.143 37.1214 197.143 37.3559V42.0455C197.143 42.2566 197.055 42.491 196.9 42.6552C196.746 42.8193 196.525 42.9131 196.304 42.9131C194.117 43.0303 191.996 43.0772 189.809 43.0772C187.622 43.0772 185.39 43.0303 183.203 42.9131C182.982 42.9131 182.783 42.8193 182.629 42.6552C182.474 42.491 182.386 42.2566 182.386 42.0455C182.342 41.5531 182.342 41.0841 182.32 40.6152H180.508C180.508 41.1076 180.53 41.6234 180.552 42.1393C180.618 43.5931 181.745 44.789 183.115 44.8359C185.346 44.9531 187.577 45 189.809 45C192.018 45 194.161 44.9531 196.392 44.8359C197.784 44.789 198.888 43.5931 198.955 42.1393V37.2621C198.933 36.5821 198.69 35.9724 198.292 35.5034C198.69 35.0345 198.933 34.4248 198.955 33.7683Z" fill="url(#paint5_linear_2_6879)"/>
<path d="M211.931 28.3048H207.91L200.84 44.6952H202.829L204.353 41.1779H215.487L217.012 44.6952H219L211.931 28.3048ZM205.193 39.2317L209.081 30.2276H210.76L214.648 39.2317H205.193Z" fill="url(#paint6_linear_2_6879)"/>
<defs>
<linearGradient id="paint0_linear_2_6879" x1="97.8466" y1="36.395" x2="219.061" y2="44.0297" gradientUnits="userSpaceOnUse">
<stop offset="0.129677" stop-color="white"/>
<stop offset="1" stop-color="#8AC2E1"/>
</linearGradient>
<linearGradient id="paint1_linear_2_6879" x1="97.8466" y1="36.395" x2="219.061" y2="44.0297" gradientUnits="userSpaceOnUse">
<stop offset="0.129677" stop-color="white"/>
<stop offset="1" stop-color="#8AC2E1"/>
</linearGradient>
<linearGradient id="paint2_linear_2_6879" x1="97.8466" y1="36.395" x2="219.061" y2="44.0297" gradientUnits="userSpaceOnUse">
<stop offset="0.129677" stop-color="white"/>
<stop offset="1" stop-color="#8AC2E1"/>
</linearGradient>
<linearGradient id="paint3_linear_2_6879" x1="97.8466" y1="36.395" x2="219.061" y2="44.0297" gradientUnits="userSpaceOnUse">
<stop offset="0.129677" stop-color="white"/>
<stop offset="1" stop-color="#8AC2E1"/>
</linearGradient>
<linearGradient id="paint4_linear_2_6879" x1="97.8466" y1="36.395" x2="219.061" y2="44.0297" gradientUnits="userSpaceOnUse">
<stop offset="0.129677" stop-color="white"/>
<stop offset="1" stop-color="#8AC2E1"/>
</linearGradient>
<linearGradient id="paint5_linear_2_6879" x1="97.8466" y1="36.395" x2="219.061" y2="44.0297" gradientUnits="userSpaceOnUse">
<stop offset="0.129677" stop-color="white"/>
<stop offset="1" stop-color="#8AC2E1"/>
</linearGradient>
<linearGradient id="paint6_linear_2_6879" x1="97.8466" y1="36.395" x2="219.061" y2="44.0297" gradientUnits="userSpaceOnUse">
<stop offset="0.129677" stop-color="white"/>
<stop offset="1" stop-color="#8AC2E1"/>
</linearGradient>
</defs>
</svg>
