<svg width="266" height="139" viewBox="0 0 266 139" fill="none" xmlns="http://www.w3.org/2000/svg">
<path d="M29.6461 50.792C30.6482 51.6847 35.6323 55.704 44.2703 55.7811C44.6642 52.3236 47.1628 43.9905 54.9256 41.3124L55.2669 41.1946L55.5207 41.4574C56.5885 42.5631 58.5138 46.0069 58.702 49.5187C63.9181 46.1293 69.0597 35.9835 68.5521 25.6702C68.167 17.8581 64.5263 7.33627 49.4208 1.40472L43.9334 7.18674L39.8901 4.92106C39.8507 4.88934 39.1462 4.37276 38.5292 3.69759C38.1529 4.49058 37.654 5.25638 36.8795 6.4436C36.6563 6.78345 36.4113 7.15955 36.1399 7.58097C35.0591 9.2621 35.7767 11.9175 37.7765 13.6258L38.1572 13.9521L37.9078 14.3961C36.8882 16.2177 36.9232 19.4124 38.9974 21.7415L39.2249 21.9952L39.1287 22.326C38.4373 24.6778 38.0216 26.0961 36.0568 28.0265L35.8555 28.2259L35.5798 28.1896C33.7988 27.9494 32.0354 27.3286 30.9677 26.7396C30.7401 28.1171 30.7751 30.564 31.9216 33.6136L32.2848 34.5879L31.2871 34.4338C24.7539 33.4097 18.8552 29.549 14.1511 23.2323C14.1074 28.5023 16.3172 41.0043 29.2654 46.5688L29.6068 46.7138L29.6243 47.099C29.6986 48.8118 29.6593 50.212 29.6374 50.7966L29.6461 50.792ZM44.5198 56.9955C34.1839 56.9955 28.8629 51.7074 28.6441 51.4853L28.4559 51.295L28.4734 51.0186C28.4734 51.0186 28.5565 49.5051 28.4865 47.534C13.5691 40.891 12.5583 25.2986 13.1097 21.456L13.3241 19.9697L14.1643 21.1977C18.597 27.6912 24.2288 31.7739 30.4994 33.0563C29.4405 29.7076 29.5761 26.9707 30.0575 25.5705L30.3419 24.7458L30.9852 25.3167C31.5234 25.7925 33.3919 26.6218 35.4617 26.948C36.9495 25.4209 37.3521 24.2473 37.9253 22.2988C35.8468 19.7522 35.7242 16.4035 36.6826 14.2375C34.4684 12.1033 33.812 9.02647 35.1729 6.91033C35.4442 6.48438 35.6936 6.10828 35.9168 5.76389C36.9757 4.14166 37.4571 3.40305 37.8334 2.30646L38.2579 1.083L38.888 2.20677C39.2643 2.87741 40.1833 3.64321 40.5421 3.91057L43.7234 5.69139L49.1276 0L49.482 0.135941C61.9664 4.92106 69.156 13.9702 69.7249 25.6113C70.2893 37.1164 64.3163 48.0777 58.3826 51.0911L57.4899 51.5442L57.5468 50.5156C57.7174 47.3029 55.9189 43.8409 54.9387 42.5948C46.3401 45.8393 45.3949 56.3203 45.3906 56.4245L45.3599 56.9909L44.5241 57" fill="white"/>
<path d="M13.6874 21.5468C13.2673 24.4695 13.5911 40.4788 29.0511 47.1218C29.1473 49.3376 29.0511 51.0505 29.0511 51.0505C29.0511 51.0505 34.3984 56.4881 44.8043 56.3884C44.9005 54.5759 46.6509 44.8063 55.1138 41.8881C56.1816 42.9937 58.5883 47.4027 58.0894 51.2499C70.3857 45.4905 80.3233 11.5053 49.7403 0.253906L43.8328 6.44828L40.2358 4.43635C40.2358 4.43635 38.9231 3.4757 38.3892 2.52412C37.9035 3.93337 37.2427 4.80792 35.6674 7.25486C34.4028 9.21694 35.1817 12.1895 37.4178 14.1017C36.35 16.014 36.2494 19.5394 38.5861 22.1585C37.9035 24.474 37.5184 25.7836 35.6674 27.5961C33.4313 27.2925 31.2915 26.3863 30.6089 25.7836C30.1232 27.1929 30.0269 30.2153 31.3878 33.8404C28.1803 33.3374 20.4962 31.5248 13.6917 21.5558" fill="#231F20"/>
<path d="M58.8509 50.851C58.8509 50.2937 58.7065 49.2288 58.6409 48.7757C58.4614 47.7244 58.4177 46.5417 57.0043 43.5873C56.501 42.604 55.3896 41.1403 55.2889 41.1539C53.8493 41.5481 51.4513 42.9574 50.0641 44.0812C48.6113 45.2593 47.2154 47.1308 46.1083 49.0022C45.9377 49.2922 45.7583 49.5913 45.5832 49.9085C44.8918 51.4945 44.4499 53.1983 44.2792 54.9157C44.2311 55.1558 44.3405 55.3326 44.1261 55.3688C40.761 55.9579 37.4003 54.8024 34.2891 53.5608C33.4183 53.2119 32.3155 52.7905 31.4185 52.1742C30.5477 51.635 29.7732 50.7649 29.6506 49.7091C29.5806 48.6035 29.5106 47.4797 29.6681 46.3831C28.1716 45.6218 26.5788 44.9739 25.266 43.8999C24.5659 43.329 23.8657 42.7263 23.1918 42.0919C22.2729 41.3125 21.3933 40.4652 20.5794 39.5C18.6628 37.2116 17.1181 34.7149 16.1423 31.9145C15.7922 31.126 15.4859 30.3194 15.2583 29.4811C15.1183 29.028 14.9477 28.5749 14.8514 28.1127C14.5801 27.0886 14.4619 26.3771 14.3875 25.489C14.3657 25.2579 14.3613 25.0223 14.3613 24.7912C14.3613 24.6144 14.3525 24.0435 14.5363 23.9438C14.672 23.8668 14.8951 24.2157 14.987 24.3471C17.385 27.6233 20.6494 30.0521 24.0933 32.0323C25.3579 32.7573 26.9682 33.6772 28.6354 34.2617C28.9155 34.3388 29.1999 34.4067 29.4887 34.4611C30.4733 34.6424 31.4535 34.7103 32.4293 34.7013C31.2084 32.49 30.9503 29.8799 31.0028 27.374C31.0028 27.2019 31.1253 27.1112 31.2522 27.0931C32.4293 28.0266 34.1665 28.4027 35.5843 28.4344C35.6106 28.4344 35.72 28.4072 35.7419 28.3936C37.3609 27.3559 39.2644 24.1296 39.2907 21.9138C38.9012 21.4878 38.8269 21.157 38.4943 20.6042C38.2974 20.21 38.0873 19.8248 37.8948 19.417C37.5272 18.6376 37.2122 17.7268 37.3784 16.8477C37.4441 15.7919 37.8379 14.7587 38.2886 13.6576C36.8271 12.8238 35.4881 11.1382 35.6675 9.32563C35.6981 9.00391 35.6893 8.59608 35.79 8.31967C36.2276 6.86057 37.3434 5.83195 38.1005 4.64474C38.153 4.4952 38.5074 3.56174 38.7175 3.82909C39.2732 4.52239 39.969 5.01178 40.6954 5.46038C41.3474 5.76398 42.0081 6.05399 42.5989 6.47994C42.9489 6.72916 43.2115 7.1687 43.6141 7.33183C44.056 7.51309 44.323 7.1823 44.638 6.88776C45.7451 5.84555 46.6334 4.57677 47.688 3.47565C47.9768 3.17204 50.3398 0.421508 50.5542 0.557448C50.3442 0.426039 50.0466 0.385257 49.7491 0.271973L43.8416 6.46634L40.2446 4.45442C40.2446 4.45442 38.9319 3.49377 38.398 2.54219C37.9123 3.95144 37.2515 4.82599 35.6762 7.27293C34.4116 9.23501 35.1905 12.2076 37.4266 14.1198C36.372 16.0094 36.267 19.4668 38.5118 22.0724C37.781 24.7277 37.4878 25.8379 35.6762 27.6142C33.4401 27.3106 31.3003 26.4043 30.6177 25.8017C30.132 27.2109 30.0357 30.2333 31.3966 33.8584C28.1891 33.3554 20.505 31.5429 13.7005 21.5739C13.2804 24.4966 13.6043 40.5059 29.0643 47.1489C29.1605 49.3647 29.0643 51.0776 29.0643 51.0776C29.0643 51.0776 34.4116 56.5152 44.8174 56.4155C44.9137 54.603 46.6641 44.8334 55.127 41.9152C56.1947 43.0208 58.5796 47.5794 58.1026 51.277C58.3433 51.1546 58.6234 51.0323 58.864 50.8828" fill="#4E9DD9"/>
<path d="M40.8485 6.83304C40.7523 6.78319 40.6735 6.73788 40.6254 6.71069C40.5991 6.69256 40.5729 6.68803 40.5466 6.67897C40.4241 6.611 40.3147 6.54303 40.2228 6.47053C39.597 5.99927 39.0632 5.50082 38.6431 4.87549C38.6256 4.90268 37.7067 6.79679 36.8271 7.66681C36.7746 7.77103 36.7221 7.87525 36.6783 7.97947C35.8382 10.0095 37.1203 11.7949 38.8006 12.751C38.875 12.7918 39.0107 12.973 39.0194 12.9594C39.4964 12.2843 40.1178 11.6589 40.2359 10.798C40.3541 9.94608 39.9559 9.19388 39.5839 8.46433C39.5314 8.35557 38.9669 7.00523 39.0894 6.96445C39.1551 6.94632 41.0236 9.44763 42.2795 9.31169C42.5726 9.03528 42.9533 8.63652 43.2422 8.35557C43.0409 7.99307 41.1461 6.9871 40.8398 6.83304" fill="#4E9DD9"/>
<path d="M47.0401 29.676C47.097 29.599 47.8409 28.8966 48.2216 28.7335C48.8823 28.448 48.9174 28.9057 48.6329 29.1594C48.0641 29.676 47.7009 30.3149 47.4908 31.0128C47.5171 31.3164 47.4689 31.7695 47.5039 32.0686C48.3091 31.8148 49.123 32.0867 49.3112 32.9567C49.3681 33.1017 49.4468 33.7044 49.3024 34.0306C49.3812 34.4022 48.7905 34.9868 48.3529 34.9868L47.6221 34.9596C47.6702 35.4625 47.6177 35.9429 47.5958 36.1921C47.5696 36.5455 47.6571 36.7585 47.4602 37.0485C46.9395 37.8143 45.8192 37.692 44.8128 37.5651C43.7976 37.2751 43.0274 36.9398 43.023 36.7223C42.988 35.1635 43.0712 32.064 43.2681 31.561C43.4606 31.3073 43.8982 31.3073 43.8982 31.7378C43.8982 31.9734 43.8545 32.2045 43.837 32.4356C43.8807 33.5503 43.8282 34.9732 44.2133 35.5894C44.7428 35.7118 46.0161 35.8522 46.4756 35.5396C46.4187 33.4234 46.2874 30.546 47.0357 29.676H47.0401ZM49.8757 14.5367C50.0857 14.4506 50.3439 14.3827 50.462 14.3011C51.114 13.8797 50.7815 13.1093 50.7815 12.4568C50.8296 11.5641 50.8209 11.111 51.1622 10.2908C51.2628 10.0507 51.5298 10.1232 51.6479 10.2908C52.1949 10.7938 51.5429 11.9402 51.5866 12.6834C51.6217 13.2679 52.5362 13.5126 53.582 13.0595C53.9978 12.8782 54.4922 12.3979 54.9692 12.4795C55.4068 12.5565 55.0217 13.2679 54.7504 13.5081C54.2165 13.9884 53.512 13.9839 52.8469 14.0564C52.0592 14.1425 51.5954 14.4914 50.9171 14.872C50.5189 15.0941 50.3701 15.5019 49.9019 15.2119C49.3374 14.8584 49.5519 14.6727 49.8757 14.5367ZM51.9498 1.13295C50.077 2.95909 47.7052 5.21571 45.8017 7.00106C44.9834 7.97531 44.0908 9.00846 43.0493 9.69722C42.3535 10.4132 41.6753 11.1473 41.0233 11.9085C40.9007 12.0581 40.7738 12.2031 40.6469 12.3481C39.7192 13.4537 38.6559 14.8222 38.6165 16.3357C38.5815 17.6724 39.0804 18.5923 39.6317 19.7387C40.0212 20.5498 40.1875 21.1706 40.4806 21.8503C40.4369 22.6886 40.2487 23.7762 39.9074 24.6643C39.3779 26.0509 38.5203 27.442 37.2206 28.8286C36.7611 29.3543 36.5117 29.4358 35.9954 29.4404C35.7897 29.4404 35.0502 29.4222 34.8664 29.4086C34.3019 29.3633 33.6543 29.309 33.0416 29.1504C33.0504 31.7151 35.1858 33.6998 36.748 35.4625C36.5117 35.7752 34.5951 36.2782 30.5605 35.6846C28.4864 35.3764 26.666 34.5472 24.8062 33.5775C23.2747 32.7754 21.7081 31.9054 20.2247 30.9085C18.8288 30.0566 17.5248 29.0643 16.4614 27.8272C16.8946 31.919 19.8046 35.6529 22.592 38.3717C25.4189 41.1313 28.6614 43.1704 32.4159 43.9362C33.9868 44.0449 35.4834 43.4559 36.6999 42.1826C36.8793 41.9922 37.1944 42.1327 37.1987 42.3955C37.2031 43.1251 37.12 43.909 36.9799 44.5343C36.6824 45.6083 36.608 46.3378 35.304 46.6505C34.8664 46.7547 34.175 46.8635 33.7243 46.9042C33.0854 47.0221 31.4007 47.1217 31.3657 47.1308C31.1075 47.8649 31.4182 48.8029 31.5845 49.0929C31.847 49.5007 32.1927 50.0354 32.7747 50.3254C33.313 50.5746 33.8949 50.8057 34.6213 50.8556C35.1289 50.8918 36.3236 50.9326 36.8355 50.7559C37.0281 49.1201 37.8507 46.9314 40.0431 46.9314C40.8438 46.9314 40.787 48.0461 40.4806 48.0643C39.6098 48.1141 39.3736 48.753 39.3298 49.5143C39.2992 50.3843 40.345 52.0156 41.5615 52.65C41.8853 52.8177 42.2047 52.9808 42.5286 53.0624C42.9443 50.262 46.7513 45.8258 46.7557 45.8212C48.0072 44.2579 49.705 42.8396 51.4204 41.7929C51.4991 41.734 52.5537 41.0724 53.0482 40.8186C53.6827 40.5014 54.8204 40.225 55.7962 39.4773C55.9188 38.7659 55.6518 38.0182 55.8706 36.2419C56.0063 35.1318 56.3082 34.1258 56.8289 33.0564C57.6472 31.3753 59.1175 29.2954 59.1175 27.7819C58.6843 26.7623 58.0279 25.9376 57.586 25.3259C56.632 24.1613 55.5424 23.2007 54.5972 22.1403C53.6608 21.0891 52.8294 19.9018 52.6018 18.4563C52.5362 18.0531 52.5493 17.6452 52.685 17.2555C52.9607 16.4671 53.5645 15.8463 54.3303 15.5653C55.1092 15.2799 56.0807 15.4838 56.667 14.7452C58.238 12.7604 56.8815 9.95551 56.969 7.67624C55.8094 7.85749 54.4047 7.67624 53.1007 7.63545C51.8711 7.4542 50.6415 7.46779 49.6525 8.25625C48.948 8.81814 48.7117 9.76519 48.6154 10.6352C48.4841 11.8496 48.913 14.0292 46.9132 14.07C46.4669 14.0791 46.0424 13.9612 45.6092 13.8706C45.6354 13.7981 45.6923 13.7347 45.7973 13.712C46.2743 13.6123 47.2545 13.5625 47.5958 13.132C47.9809 12.6426 47.8234 11.7862 47.8453 11.2062C47.889 10.0552 48.1647 8.80001 48.9436 7.92546C50.6064 6.0676 53.0701 6.3712 55.2755 6.57512C55.9713 6.63855 56.6583 6.6159 57.3584 6.62043C57.5203 6.62043 57.9054 6.54793 58.1155 6.61137C58.0805 6.90137 58.1417 7.70342 58.1723 7.87108C58.5443 10.7983 59.5639 14.3509 57.4722 15.9596C57.1834 16.0955 56.8771 16.1907 56.5445 16.2496C55.6212 16.4036 54.6498 16.3493 54.0371 17.2012C53.7439 17.609 53.8927 18.2298 53.9934 18.6784C54.094 19.1225 54.3172 19.5167 54.6016 19.8747C55.6037 21.6419 57.9492 23.0965 58.9819 24.2791C59.6689 25.0676 60.8635 26.5494 61.0079 27.5508C61.0473 27.8317 60.6185 28.4752 60.5134 28.738C60.159 29.6488 59.7039 30.5007 59.2532 31.3662C58.6843 32.4673 57.9098 34.1802 59.5858 35.0638C60.3253 35.4535 61.9006 35.2224 62.7933 34.9868C62.7933 34.0034 62.8677 33.5141 62.9158 32.4175C62.9902 30.7363 63.1258 28.8966 63.0865 27.2155C63.0646 27.1656 63.791 27.1656 63.8041 27.2789C64.1848 30.1201 64.8893 32.9023 64.8456 35.7843C66.4428 34.6696 68.5082 32.7301 69.7553 31.2121C70.9412 21.0392 68.1931 8.3786 51.9542 1.12842" fill="#4E9DD9"/>
<path d="M46.7033 35.5442C46.6464 33.4281 46.5064 30.7274 47.2503 29.8528C47.4472 29.6172 47.7229 29.2003 48.6462 28.6611C48.0248 28.4617 46.9746 29.2003 46.7208 29.5311C46.4539 29.88 46.3883 30.3377 46.3139 30.7772C46.1913 31.4796 46.1476 32.1865 46.0776 32.8979C45.9988 33.6682 45.7056 35.159 45.1455 35.7209C45.5262 35.8659 46.2482 35.8569 46.7033 35.5442Z" fill="#2C5E9D"/>
<path d="M37.0413 40.8002C35.9779 40.7594 34.9759 41.1763 33.9169 41.208C30.6919 41.3031 27.83 39.7897 25.0732 38.2173C25.3095 39.2187 25.7121 40.6688 26.7886 41.6702C28.4164 42.8846 30.298 43.9268 32.4204 43.9268C33.8688 43.9268 35.7241 43.4238 36.7043 42.3997C36.8838 42.2094 37.1988 42.3499 37.2032 42.6127C37.2032 42.6172 37.2032 42.6263 37.2032 42.6308C37.387 42.0146 37.4351 41.2216 37.05 40.7956" fill="#2C5E9D"/>
<path d="M57.5815 25.3214C56.6275 24.1568 55.516 23.2188 54.5927 22.1358C53.9188 21.3474 53.2756 20.5952 52.7724 19.1905C52.6455 18.8415 52.6236 17.4776 52.7286 17.1196C51.2233 19.0953 53.5513 23.7082 54.1683 25.5706C54.8903 27.7547 56.0105 29.821 54.689 31.9417C54.4833 32.2725 53.5119 33.4099 53.315 33.7407C52.8993 34.434 52.7724 35.0729 51.8403 34.8735C51.429 34.7874 50.987 34.5472 50.812 34.1349C50.5494 33.5096 50.6151 32.8163 50.2912 32.2C50.1031 31.8375 49.823 31.5339 49.4861 31.3164C49.2717 31.1804 48.3308 30.9086 48.4271 30.5551C48.4709 30.3965 48.8078 28.8966 48.7947 28.8876C48.2915 29.386 47.692 30.3603 47.4907 31.0083C47.5169 31.3119 47.4688 31.765 47.5038 32.0641C48.309 31.8103 49.1229 32.0822 49.311 32.9522C49.3679 33.0972 49.4467 33.6999 49.3023 34.0261C49.3811 34.3977 48.7903 34.9823 48.3527 34.9823L47.622 34.9551C47.6701 35.458 47.6176 35.9384 47.5957 36.1876C47.5694 36.541 47.657 36.754 47.46 37.044C46.9393 37.8098 45.9022 37.5244 44.8958 37.3975C43.8806 37.1075 43.4255 37.1981 43.1717 36.6679C42.8697 36.0381 43.2679 35.0774 43.0492 34.0488C42.5984 35.8568 42.244 37.7192 42.3621 39.5544C42.4365 40.7371 42.5678 44.4845 42.5634 45.1008C42.5634 45.2775 42.4322 45.3863 42.2702 45.4044C41.4651 45.4814 40.673 45.5856 39.8854 45.7624C37.9337 46.6596 36.4547 48.4948 36.0215 50.8601C36.214 50.9689 36.6385 50.8058 36.8266 50.7423C37.0192 49.1065 37.8419 46.9179 40.0342 46.9179C40.835 46.9179 40.7781 48.0326 40.4718 48.0507C39.601 48.1005 39.3647 48.7395 39.3209 49.5007C39.2903 50.3708 40.3361 52.0021 41.5526 52.6364C41.8764 52.8041 42.1959 52.9672 42.5197 53.0488C42.9354 50.2484 46.7424 45.8122 46.7468 45.8077C47.6788 44.6431 49.9981 42.604 52.396 41.2491C53.013 40.9002 54.8772 40.506 56.5531 39.8535C56.1505 38.6844 55.7261 37.4564 55.9449 35.6801C56.0805 34.5699 56.2993 34.1122 56.8201 33.0428C57.6383 31.3617 59.3624 29.3226 59.3624 27.8091C58.9292 26.7896 58.0191 25.9241 57.5771 25.3123" fill="#2C5E9D"/>
<path d="M35.0811 31.1758C35.3086 31.7105 36.3326 33.0563 36.6345 33.5457C36.792 33.7994 36.8927 33.9354 37.2077 34.307C37.4834 34.5562 37.781 34.7827 38.1004 34.964C39.0806 35.5214 39.4001 34.7193 39.6276 33.8085C39.7895 33.0291 39.9252 32.4038 39.8814 31.8645C38.5555 32.2542 36.3326 31.6697 35.0811 31.1758Z" fill="#2C5E9D"/>
<path d="M48.7909 33.8085H47.6226V32.5986H48.7909V33.8085Z" fill="#4E9DD9"/>
<path d="M44.2095 29.3995C43.8244 30.6456 44.0038 32.6847 44.8177 33.0246C45.8635 32.6077 45.089 30.7634 45.5266 29.549C45.9117 28.4751 46.1305 28.0944 47.0319 27.0205C45.7585 27.2108 44.5333 28.3482 44.2095 29.3995Z" fill="white"/>
<path d="M34.6086 32.159C34.276 31.3389 34.0878 30.6501 35.2781 30.4099C40.6254 29.3269 43.2072 24.0343 40.9011 20.3322C39.8465 18.642 39.2383 16.9337 40.6167 15.0849C42.9228 11.9945 45.6752 9.44333 48.3664 6.89217C49.6791 5.64605 52.239 2.9952 54.0506 2.10706C53.6655 1.91674 52.7072 1.40469 51.959 1.13281C50.0861 2.95895 47.7143 5.21557 45.8108 7.00093C44.0867 8.62315 41.6844 11.1471 41.028 11.9084C40.9055 12.0579 40.7786 12.2029 40.6517 12.3479C39.724 13.4536 38.6606 14.8221 38.6213 16.3355C38.5863 17.6723 39.0851 18.5921 39.6365 19.7386C40.0259 20.5497 40.1922 21.1705 40.4854 21.8502C40.4416 22.6885 40.2535 23.776 39.9121 24.6642C39.3827 26.0508 38.525 27.4419 37.2254 28.8285C36.7659 29.3541 36.5165 29.4357 36.0001 29.4402C35.7944 29.4402 35.0549 29.4221 34.8711 29.4085C34.3066 29.3632 33.659 29.3088 33.0464 29.1502C33.0551 31.5564 34.206 33.9399 36.7528 35.4624C36.5865 35.2948 34.9061 32.8795 34.613 32.1636" fill="white"/>
<path d="M30.5561 35.6753C28.482 35.3671 26.6616 34.5379 24.8018 33.5682C23.2703 32.7661 21.7037 31.8961 20.2203 30.8992C18.8244 30.0473 17.5204 29.0549 16.457 27.8179C16.8902 31.9097 18.8463 35.1224 21.6206 37.8594C22.3295 38.5572 24.7493 40.329 24.7581 40.3154C23.7998 39.2188 20.601 35.6299 20.3472 35.2538C19.9009 34.5923 18.96 33.0244 18.6712 31.5155C19.2663 31.8236 21.5724 33.0244 22.7539 33.7041C29.681 37.7053 36.0654 36.3096 36.7436 35.4532C35.7722 35.7432 34.1969 36.2145 30.5561 35.6753Z" fill="white"/>
<path d="M57.3281 13.2543C57.8007 11.4734 57.3412 10.5083 57.2887 9.69262C57.2799 9.52496 56.8642 7.68976 56.9605 7.67616C55.9409 7.83476 54.9476 7.60819 53.788 7.54929C52.7378 7.62632 51.018 7.09162 49.644 8.25618C48.5019 9.20323 48.4056 11.6003 48.1475 13.5171C48.8476 12.2619 48.5807 10.0325 49.9985 8.92682C51.8407 7.49038 54.6894 8.41024 56.3435 8.25618C56.8555 9.1262 57.2931 10.8255 57.3281 13.2543Z" fill="white"/>
<path d="M48.6465 33.7042H47.627V32.6484H48.6465V33.7042Z" fill="white"/>
<path d="M40.122 6.18969C39.5663 5.72749 38.8924 5.26529 38.6036 4.58105C38.5467 5.08404 38.3498 5.39217 38.1223 5.79999C37.6322 6.68361 36.757 7.36784 36.4113 8.32849C36.2538 8.7635 36.1881 9.29367 36.2188 9.76493C36.2669 10.49 36.7176 11.1243 37.2602 11.4687C36.757 10.3676 36.8051 9.26195 37.2427 8.45537C37.5578 7.80285 38.3498 6.98721 38.7743 6.14891C38.7174 6.26219 39.7938 6.93283 39.9208 6.98268C40.3583 7.16393 41.0979 7.33159 41.973 7.45847C41.1547 6.96908 40.5728 6.56126 40.122 6.18516" fill="white"/>
<g filter="url(#filter0_dddddd_255_6477)">
<path d="M80 22.2331V23.7034H85.0155V34.7669H86.466V23.7034H91.499V22.2331H80Z" fill="url(#paint0_linear_255_6477)"/>
<path d="M104.841 23.7034V22.2331H93.3419V34.7669H104.841V33.2965H94.7749V29.2441H104.841V27.7738H94.7749V23.7034H104.841Z" fill="url(#paint1_linear_255_6477)"/>
<path d="M122.352 22.2331H120.167L114.261 27.5228L108.371 22.2331H106.187L113.177 28.509L106.187 34.7669H108.371L114.261 29.4772L120.167 34.7669H122.352L115.362 28.509L122.352 22.2331Z" fill="url(#paint2_linear_255_6477)"/>
<path d="M136.492 27.0028H125.587V23.7034H137.611V22.2331H124.154V34.7669H136.51C137.593 34.7131 138.467 33.8166 138.519 32.6869V29.0828C138.467 27.9531 137.593 27.0566 136.492 27.0028ZM137.086 32.6331C137.086 32.7945 137.016 32.9738 136.894 33.0993C136.772 33.2248 136.597 33.2965 136.44 33.2965H125.587V28.509L136.422 28.491C136.597 28.491 136.772 28.5628 136.894 28.6883C137.016 28.8138 137.086 28.9752 137.086 29.1545V32.6331Z" fill="url(#paint3_linear_255_6477)"/>
<path d="M148.708 22.2331H145.527L139.935 34.7669H141.508L142.714 32.0772H151.521L152.727 34.7669H154.3L148.708 22.2331ZM143.378 30.589L146.453 23.7034H147.782L150.857 30.589H143.378Z" fill="url(#paint4_linear_255_6477)"/>
<path d="M170.143 26.411V24.2055C170.091 23.0759 169.217 22.1793 168.116 22.1255C166.351 22.0359 164.656 22 162.908 22C161.143 22 159.378 22.0359 157.613 22.1255C156.53 22.1793 155.638 23.0759 155.586 24.2055C155.569 24.5821 155.551 24.9766 155.551 25.371H156.984C157.002 24.9945 157.002 24.6359 157.037 24.2772C157.037 24.0979 157.106 23.9366 157.229 23.811C157.351 23.6855 157.508 23.6138 157.683 23.5959C159.413 23.5241 161.178 23.4703 162.908 23.4703C164.638 23.4703 166.316 23.5241 168.046 23.5959C168.221 23.6138 168.396 23.6855 168.518 23.811C168.64 23.9366 168.71 24.0979 168.71 24.2772V26.3393C168.71 26.5186 168.623 26.68 168.501 26.8055C168.378 26.931 168.221 27.0028 168.046 27.0028H160.252V28.509L168.046 28.491C168.221 28.491 168.396 28.5628 168.518 28.6883C168.64 28.8138 168.71 28.9752 168.71 29.1545V32.7407C168.71 32.9021 168.64 33.0814 168.518 33.2069C168.396 33.3324 168.221 33.4041 168.046 33.4041C166.316 33.4938 164.638 33.5297 162.908 33.5297C161.178 33.5297 159.413 33.4938 157.683 33.4041C157.508 33.4041 157.351 33.3324 157.229 33.2069C157.106 33.0814 157.037 32.9021 157.037 32.7407C157.002 32.3641 157.002 32.0055 156.984 31.6469H155.551C155.551 32.0234 155.569 32.4179 155.586 32.8124C155.638 33.9241 156.53 34.8386 157.613 34.8745C159.378 34.9641 161.143 35 162.908 35C164.656 35 166.351 34.9641 168.116 34.8745C169.217 34.8386 170.091 33.9241 170.143 32.8124V29.0828C170.126 28.5628 169.934 28.0966 169.619 27.7379C169.934 27.3793 170.126 26.9131 170.143 26.411Z" fill="url(#paint5_linear_255_6477)"/>
<path d="M180.408 22.2331H177.227L171.635 34.7669H173.208L174.414 32.0772H183.221L184.427 34.7669H186L180.408 22.2331ZM175.078 30.589L178.153 23.7034H179.482L182.557 30.589H175.078Z" fill="url(#paint6_linear_255_6477)"/>
</g>
<defs>
<filter id="filter0_dddddd_255_6477" x="0" y="22" width="266" height="193" filterUnits="userSpaceOnUse" color-interpolation-filters="sRGB">
<feFlood flood-opacity="0" result="BackgroundImageFix"/>
<feColorMatrix in="SourceAlpha" type="matrix" values="0 0 0 0 0 0 0 0 0 0 0 0 0 0 0 0 0 0 127 0" result="hardAlpha"/>
<feOffset dy="2.76726"/>
<feGaussianBlur stdDeviation="1.1069"/>
<feColorMatrix type="matrix" values="0 0 0 0 0 0 0 0 0 0 0 0 0 0 0 0 0 0 0.0196802 0"/>
<feBlend mode="normal" in2="BackgroundImageFix" result="effect1_dropShadow_255_6477"/>
<feColorMatrix in="SourceAlpha" type="matrix" values="0 0 0 0 0 0 0 0 0 0 0 0 0 0 0 0 0 0 127 0" result="hardAlpha"/>
<feOffset dy="6.6501"/>
<feGaussianBlur stdDeviation="2.66004"/>
<feColorMatrix type="matrix" values="0 0 0 0 0 0 0 0 0 0 0 0 0 0 0 0 0 0 0.0282725 0"/>
<feBlend mode="normal" in2="effect1_dropShadow_255_6477" result="effect2_dropShadow_255_6477"/>
<feColorMatrix in="SourceAlpha" type="matrix" values="0 0 0 0 0 0 0 0 0 0 0 0 0 0 0 0 0 0 127 0" result="hardAlpha"/>
<feOffset dy="12.5216"/>
<feGaussianBlur stdDeviation="5.00862"/>
<feColorMatrix type="matrix" values="0 0 0 0 0 0 0 0 0 0 0 0 0 0 0 0 0 0 0.035 0"/>
<feBlend mode="normal" in2="effect2_dropShadow_255_6477" result="effect3_dropShadow_255_6477"/>
<feColorMatrix in="SourceAlpha" type="matrix" values="0 0 0 0 0 0 0 0 0 0 0 0 0 0 0 0 0 0 127 0" result="hardAlpha"/>
<feOffset dy="22.3363"/>
<feGaussianBlur stdDeviation="8.93452"/>
<feColorMatrix type="matrix" values="0 0 0 0 0 0 0 0 0 0 0 0 0 0 0 0 0 0 0.0417275 0"/>
<feBlend mode="normal" in2="effect3_dropShadow_255_6477" result="effect4_dropShadow_255_6477"/>
<feColorMatrix in="SourceAlpha" type="matrix" values="0 0 0 0 0 0 0 0 0 0 0 0 0 0 0 0 0 0 127 0" result="hardAlpha"/>
<feOffset dy="41.7776"/>
<feGaussianBlur stdDeviation="16.711"/>
<feColorMatrix type="matrix" values="0 0 0 0 0 0 0 0 0 0 0 0 0 0 0 0 0 0 0.0503198 0"/>
<feBlend mode="normal" in2="effect4_dropShadow_255_6477" result="effect5_dropShadow_255_6477"/>
<feColorMatrix in="SourceAlpha" type="matrix" values="0 0 0 0 0 0 0 0 0 0 0 0 0 0 0 0 0 0 127 0" result="hardAlpha"/>
<feOffset dy="100"/>
<feGaussianBlur stdDeviation="40"/>
<feColorMatrix type="matrix" values="0 0 0 0 0 0 0 0 0 0 0 0 0 0 0 0 0 0 0.07 0"/>
<feBlend mode="normal" in2="effect5_dropShadow_255_6477" result="effect6_dropShadow_255_6477"/>
<feBlend mode="normal" in="SourceGraphic" in2="effect6_dropShadow_255_6477" result="shape"/>
</filter>
<linearGradient id="paint0_linear_255_6477" x1="90.1622" y1="28.4197" x2="186.022" y2="34.6654" gradientUnits="userSpaceOnUse">
<stop offset="0.129677" stop-color="white"/>
<stop offset="1" stop-color="#8AC2E1"/>
</linearGradient>
<linearGradient id="paint1_linear_255_6477" x1="90.1622" y1="28.4197" x2="186.022" y2="34.6654" gradientUnits="userSpaceOnUse">
<stop offset="0.129677" stop-color="white"/>
<stop offset="1" stop-color="#8AC2E1"/>
</linearGradient>
<linearGradient id="paint2_linear_255_6477" x1="90.1622" y1="28.4197" x2="186.022" y2="34.6654" gradientUnits="userSpaceOnUse">
<stop offset="0.129677" stop-color="white"/>
<stop offset="1" stop-color="#8AC2E1"/>
</linearGradient>
<linearGradient id="paint3_linear_255_6477" x1="90.1622" y1="28.4197" x2="186.022" y2="34.6654" gradientUnits="userSpaceOnUse">
<stop offset="0.129677" stop-color="white"/>
<stop offset="1" stop-color="#8AC2E1"/>
</linearGradient>
<linearGradient id="paint4_linear_255_6477" x1="90.1622" y1="28.4197" x2="186.022" y2="34.6654" gradientUnits="userSpaceOnUse">
<stop offset="0.129677" stop-color="white"/>
<stop offset="1" stop-color="#8AC2E1"/>
</linearGradient>
<linearGradient id="paint5_linear_255_6477" x1="90.1622" y1="28.4197" x2="186.022" y2="34.6654" gradientUnits="userSpaceOnUse">
<stop offset="0.129677" stop-color="white"/>
<stop offset="1" stop-color="#8AC2E1"/>
</linearGradient>
<linearGradient id="paint6_linear_255_6477" x1="90.1622" y1="28.4197" x2="186.022" y2="34.6654" gradientUnits="userSpaceOnUse">
<stop offset="0.129677" stop-color="white"/>
<stop offset="1" stop-color="#8AC2E1"/>
</linearGradient>
</defs>
</svg>
